# xmcd
#
# Track frame offsets: 
#        150
#        37262
#        57788
#        64893
#        85615
#        99034
#        120678
#        136545
#        161005
#        187837
#        214037
#        227080
#
# Disc length: 3345 seconds
#
# Revision: 2
# Processed by: cddbd v1.5.2PL0 Copyright (c) Steve Scherf et al.
# Submitted via: ExactAudioCopyFreeDBPlugin 1.0
#
DISCID=940d0f0c
DTITLE=Various Artist - Groovy Jazz Organ:  Cool and Timeless Organ Cla
DTITLE=ssics [Not Now Music]
DYEAR=2014
DGENRE=Rhythm and Blues
TTITLE0=Jack McDuff - The Honeydripper
TTITLE1=Shirley Scott - It Could Happen to You
TTITLE2=Lou Bennett et son Orchestre - Hit the Road Jack
TTITLE3=Richard "Groove" Holmes - Sweatin'
TTITLE4=Dave "Baby" Cortez - Summertime
TTITLE5=Johnny "Hammond" Smith - Rip Tide
TTITLE6=Milt Buckner - D.T.'s
TTITLE7=Lou Donaldson - Nice 'n' Greasy
TTITLE8=Larry Young - Talkin' About J.C.
TTITLE9=Freddie Roach - Ahm Miz
TTITLE10=Bill Doggett - Deed I Do
TTITLE11=Baby Face Willette - Jumpin' Jupiter
EXTD=YEAR: 2014
EXTT0=
EXTT1=
EXTT2=
EXTT3=
EXTT4=
EXTT5=
EXTT6=
EXTT7=
EXTT8=
EXTT9=
EXTT10=
EXTT11=
PLAYORDER=
